<svg xmlns="http://www.w3.org/2000/svg" version="1.1" xmlns:xlink="http://www.w3.org/1999/xlink" width="388.39" height="731.1"><svg id="SvgjsSvg1010" data-name="Layer 2" xmlns="http://www.w3.org/2000/svg" viewBox="0 0 388.39 731.1">
  <defs>
    <style>
      .cls-1 {
        fill: #4a2500;
      }

      .cls-2 {
        fill: #a7550e;
      }
    </style>
  </defs>
  <g id="SvgjsG1009" data-name="Layer 1">
    <g>
      <path class="cls-1" d="M188.26,539.23c21.8-1.51,43.81,4.31,61.52,17.03,10.99,7.9,15.07,17.51,24.78,25.87,15.72,13.53,34.52,17.98,51.52,28.08,58.23,34.61,23.42,130.84-48.36,120.06-37.63-5.65-70.68-19.51-109.85-12.11-16.02,3.03-29.42,10.5-46.25,12.3-52.97,5.66-102.11-28.58-85.65-86.31,10.11-35.45,45.51-36.43,70.78-54.86,7.87-5.74,9.34-10.17,15.22-17.01,16.58-19.29,40.79-31.27,66.29-33.04Z"></path>
      <path class="cls-1" d="M98.13,437.92c51.72-5.61,60.79,129.07-.85,104.42-40.23-16.09-42.01-99.77.85-104.42Z"></path>
      <path class="cls-1" d="M109.28,360.92c9.89-2.09,3.83,10.75,3.01,15.5-1.69,9.77-1.75,16.14,0,25.92.81,4.55,4.3,12.43,2.28,16.49-2.55,5.13-14.45,4.88-19.6,6.05-5.42,1.23-16.68,8.55-18.24-.14-1.98-11.03,5.03-35.57,11.14-45.11,3.14-4.91,15.87-17.54,21.41-18.71Z"></path>
      <path class="cls-1" d="M39.53,417.45c1.59-.15,2.48,2.12,2.22,3.48-2.64,10.28-5.44,20.9-4.68,31.63.32,4.46,1.99,7.84,2.59,11.88.24,1.62.84,11.25.41,12.11-.6,1.2-11,3.96-13.47,4.94-3.8,1.51-15.17,8.21-18.45,6.57s-1.66-14.77-1.22-18.35c2.53-20.6,12.38-43.86,32.6-52.27Z"></path>
      <path class="cls-1" d="M29.75,496.43c11.21-.79,19.81,10.45,24.38,19.33,11.52,22.36,25.97,52.37,2.06,72.29-25.51,21.25-52.58-12.02-55.84-36.92-2.37-18.06,7.42-53.14,29.4-54.7Z"></path>
      <path class="cls-2" d="M254.17,133.17c-2.69-7.82-4.52-14.93-3.94-23.34.64-9.23,6.03-25.39,13.85-30.88,13.39-9.41,5.6,9.88,5.2,15.72-1.37,19.93,15.13,32.52,25.04,47.37,20.23,30.32,25.31,72.29,6.43,104.48-12.48,21.28-32.42,28.73-36.53,56.88-1.53,10.47.72,12.68,2.8,21.83,3.06,13.48-8.71,7.41-16.11,4.28-17.63-7.46-31.96-21.26-39.15-39.13-10.66-26.49-.98-42.21,3.94-67.73,6.13-31.77,5.71-57.5-16.44-82.9-1.6-1.84-14.16-14.7-15.15-15.11-1.37-.57-.92.84-.84,1.49,1.23,10.08,7.47,22.61,10.05,32.71,13.32,52.13-61.8,89.51-32.42,138.33,2.08,3.46,9.87,11.59,8.1,15.56-2.5,5.61-20.93-.7-26,2.31-1.71,1.29,1.37,10.63-5.06,12.05s-18.85-7.25-24.47-10.78c-21.59-13.56-40.03-29.49-46.43-55.53-11.4-46.37,39.95-73.29,23.37-120.72-1.83-5.22-10.78-18.43,1.48-15.95,8.19,1.66,22.42,18.77,25.49,26.47,11.79,29.57-15.21,64.47,4.59,88.16.59.71.94,1.35,1.66.34-.46-16.93,12.68-28.73,18.64-43.19,4.85-11.76,2.98-16.96.04-28.8-4.98-20.09-14.65-40.71-13.13-61.91.64-8.96,6.76-25.1,10.04-34.03,7.31-19.9,51.09-62.43,70.9-69.86,9.37-3.52,10.96.35,8.36,9.01-3.2,10.67-11.24,19.14-13.43,30.64-6.01,31.53,15.43,58.39,35.65,79.74,3.12,3.3,8.12,8.9,11.52,11.51.66.51.83,1.28,1.97.98Z"></path>
      <path class="cls-2" d="M322.53,249c2.65,8.55.16,19.7-2.24,28.24-5.61,19.94-22.3,30.64-28.64,48.98-1.32,3.82-1.02,12.3-6.89,10.26-9.27-3.23-10.34-21.17-9.53-29.31,1.89-18.99,28.92-34.95,40-50.12,1.43-1.95,4.75-9.78,7.3-8.04Z"></path>
      <path class="cls-1" d="M188.24,410.27c8.43-1.08,17.84,1.21,25.17,5.41,11.96,6.85,19.52,30.29,20.37,43.43,1.56,24-9.07,61.47-37.83,63.46-50.79,3.51-52.82-106.54-7.72-112.3Z"></path>
      <path class="cls-1" d="M194.14,339.22c4.1-.86,6.67-.27,9.37,2.82,8.34,9.54,12.6,36.85,12.51,49.32-.1,13.38-15.01,6.28-22.04,6.25-4.11-.02-14.72,3.39-17.74-.02-5.5-6.21-.14-25.86,2.27-33.21s7.28-23.41,15.62-25.16Z"></path>
      <path class="cls-1" d="M281.65,436.59c24.76-3.38,43.21,21.16,42.28,44.26-.52,12.95-10.23,38.68-17.91,49.18-6.86,9.38-23.59,16.29-34.92,12.14-31.94-11.68-24.74-100.77,10.55-105.59Z"></path>
      <path class="cls-1" d="M356,495.8c8.78-.83,16.5,5.63,21.86,11.97,13.19,15.61,12.62,36.78,5.74,55.11-9.24,24.6-34.37,46.61-56.02,19.52-12.44-15.56-8.3-28.8-3.03-46.33,4.14-13.77,14.92-38.71,31.45-40.26Z"></path>
      <path class="cls-1" d="M313.32,429.13l-30.87-6.17c-3.91-.51-4.12-5.43-4.5-8.65-1.35-11.48.79-24.36-.09-36.09-.31-4.11-3.4-12.63-2.49-15.66,1.59-5.29,12.11,2.47,14.34,4.47,9.58,8.54,26.03,40.57,25.69,53.29-.08,2.87-1.25,6.09-2.08,8.82Z"></path>
      <path class="cls-1" d="M353.98,418.09c3.68-.99,11.36,6.35,13.68,9.11,8.74,10.37,15.61,31.11,17.33,44.5.44,3.45,1.82,12.93-.26,15.34-4.26,4.95-18.68-5.18-23.54-7.33-2.92-1.29-7-.83-8.07-4.47-.66-2.23,1.51-12.2,1.7-15.48.46-7.79.07-17.13-.73-24.91-.34-3.27-4.36-15.61-.11-16.76Z"></path>
    </g>
  </g>
</svg><style>@media (prefers-color-scheme: light) { :root { filter: none; } }
@media (prefers-color-scheme: dark) { :root { filter: invert(100%); } }
</style></svg>